<?xml version="1.0" standalone="no"?>
<!DOCTYPE svg PUBLIC "-//W3C//DTD SVG 20010904//EN"
 "http://www.w3.org/TR/2001/REC-SVG-20010904/DTD/svg10.dtd">
<svg xmlns="http://www.w3.org/2000/svg" viewBox="0 0 300.000000 280.000000"><g transform="translate(0.000000,280.000000) scale(0.050000,-0.050000)" fill="#81b3d2" stroke="none"><path d="M2660 5567 c-1063 -119 -1964 -800 -2270 -1715 -113 -337 -150 -749 -71 -791 26 -14 900 -21 2688 -21 2858 0 2710 -5 2715 96 66 1411 -1448 2613 -3062 2431z m922 -284 c1044 -242 1775 -979 1888 -1903 l13 -110 -2436 5 c-1340 2 -2458 5 -2484 5 -156 0 124 780 408 1136 578 722 1670 1085 2611 867z"/><path d="M2261 4827 c-51 -66 -52 -96 -1 -147 88 -88 280 -35 280 76 0 119 -201 170 -279 71z"/><path d="M3604 4849 c-54 -39 -59 -130 -7 -176 47 -43 190 -44 232 -2 122 123 -78 281 -225 178z"/><path d="M2921 4407 c-49 -63 -51 -84 -10 -143 71 -101 289 -41 289 80 0 112 -204 158 -279 63z"/><path d="M100 2820 c-74 -74 -52 -119 155 -322 431 -421 369 -414 710 -81 l154 151 208 -204 c270 -266 240 -271 621 101 l97 96 206 -201 c268 -259 254 -259 522 4 l207 204 207 -204 c268 -264 258 -264 515 -11 l196 193 86 -77 c47 -43 104 -96 127 -118 264 -264 257 -264 518 -10 l210 204 212 -202 c242 -231 254 -235 384 -118 427 382 498 480 408 562 -72 65 -124 40 -331 -158 -109 -104 -203 -189 -209 -189 -6 0 -102 90 -214 200 -138 136 -218 200 -249 200 -31 0 -111 -64 -249 -200 -236 -232 -207 -220 -305 -125 -408 397 -367 388 -632 128 l-206 -202 -189 191 c-280 283 -261 284 -567 -14 l-182 -177 -200 200 c-262 260 -255 260 -519 8 -110 -104 -204 -189 -209 -189 -5 0 -101 90 -213 200 -138 136 -218 200 -249 200 -31 0 -111 -64 -249 -200 -225 -222 -219 -219 -279 -154 -267 293 -417 389 -492 314z"/><path d="M230 1842 c-174 -80 -210 -163 -210 -485 0 -293 23 -356 164 -443 94 -59 96 -62 96 -159 0 -320 258 -648 560 -713 202 -43 4212 -29 4355 15 307 95 523 384 526 701 1 111 1 112 85 153 136 66 174 163 174 452 0 315 -37 399 -210 479 -125 58 -5415 58 -5540 0z m5472 -240 c83 -67 80 -438 -4 -483 -74 -40 -5376 -30 -5416 10 -56 56 -58 386 -2 456 l43 55 2666 0 c2580 0 2668 -1 2713 -38z m-217 -837 c-13 -132 -84 -281 -176 -370 -148 -143 -24 -136 -2350 -130 l-2089 5 -100 66 c-110 74 -193 177 -227 284 -26 83 -42 215 -27 229 6 6 1129 11 2495 11 l2484 0 -10 -95z"/></g></svg>