<?xml version="1.0" standalone="no"?>
<!DOCTYPE svg PUBLIC "-//W3C//DTD SVG 20010904//EN"
 "http://www.w3.org/TR/2001/REC-SVG-20010904/DTD/svg10.dtd">
<svg xmlns="http://www.w3.org/2000/svg" viewBox="0 0 300.000000 354.000000"><g transform="translate(0.000000,354.000000) scale(0.100000,-0.100000)" fill="#81b3d2" stroke="none"><path d="M766 3509 c-66 -27 -122 -67 -182 -131 -80 -85 -99 -127 -99 -228 0 -77 3 -92 34 -155 68 -140 276 -312 544 -451 l122 -63 -568 -1 -568 0 -24 -25 -25 -24 0 -360 c0 -198 4 -371 9 -384 11 -28 56 -47 112 -47 l39 0 0 -795 c0 -778 0 -795 20 -815 11 -11 30 -22 42 -25 13 -3 598 -4 1300 -3 1211 3 1278 4 1295 21 17 17 18 65 21 817 l2 800 39 0 c57 0 98 18 110 49 8 19 11 136 9 389 -3 331 -4 363 -21 379 -16 17 -60 18 -642 23 l-624 5 104 53 c275 142 462 295 534 439 28 55 28 151 1 210 -40 88 -169 181 -280 201 -96 18 -190 -12 -270 -85 -109 -97 -213 -323 -276 -593 -9 -41 -20 -78 -24 -83 -3 -4 -14 28 -24 70 -56 238 -190 545 -290 666 -65 78 -132 130 -195 152 -62 21 -165 18 -225 -6z m189 -133 c136 -57 287 -341 385 -725 11 -46 19 -85 18 -87 -6 -6 -244 112 -341 170 -244 143 -397 301 -397 410 0 99 157 246 263 246 21 0 53 -6 72 -14z m1166 -156 c54 -28 109 -94 109 -131 0 -78 -92 -183 -256 -292 -104 -69 -312 -182 -320 -175 -2 3 7 47 20 99 59 224 134 388 216 470 71 71 133 78 231 29z m-921 -1125 l0 -245 -530 0 -530 0 0 238 c0 131 3 242 7 245 3 4 242 7 530 7 l523 0 0 -245z m468 -852 l-3 -1098 -160 0 -160 0 -3 1085 c-1 597 0 1091 3 1098 3 9 46 12 165 12 l160 0 -2 -1097z m1190 850 l2 -243 -525 0 -525 0 0 238 c0 131 3 242 7 245 3 4 239 6 522 5 l516 -3 3 -242z m-1663 -1168 l0 -780 -445 0 -445 0 -3 770 c-1 424 0 776 3 783 3 10 98 12 447 10 l443 -3 0 -780z m1500 0 l0 -780 -440 0 -440 0 -3 770 c-1 424 0 776 3 783 3 10 97 12 442 10 l438 -3 0 -780z"/></g></svg>