<?xml version="1.0" standalone="no"?>
<!DOCTYPE svg PUBLIC "-//W3C//DTD SVG 20010904//EN"
 "http://www.w3.org/TR/2001/REC-SVG-20010904/DTD/svg10.dtd">
<svg xmlns="http://www.w3.org/2000/svg" viewBox="0 0 300.000000 287.000000"><g transform="translate(0.000000,287.000000) scale(0.050000,-0.050000)" fill="#81b3d2" stroke="none"><path d="M4100 5205 l0 -526 -463 466 c-516 519 -535 535 -647 535 -79 0 -94 -14 -1530 -1450 l-1450 -1450 81 -80 81 -81 326 330 c180 182 328 331 329 331 2 0 3 -684 3 -1520 l0 -1520 -205 0 -205 0 5 -110 5 -110 2575 0 2575 0 0 110 0 110 -200 0 -200 0 0 1523 0 1524 329 -337 330 -336 79 88 79 88 -408 408 -409 408 0 1062 0 1062 -540 0 -540 0 0 -525z m860 -546 l0 -840 -320 323 -320 324 0 517 0 517 320 0 320 0 0 -841z m0 -2790 l0 -1629 -1950 0 -1950 0 0 1635 0 1635 971 971 971 971 979 -977 979 -977 0 -1629z"/><path d="M2725 4120 c-395 -200 -468 -758 -134 -1032 519 -425 1250 112 987 726 -134 315 -545 462 -853 306z m500 -232 c260 -180 221 -576 -70 -697 -242 -101 -517 60 -548 323 -39 333 344 565 618 374z"/><path d="M3933 2527 c-7 -8 -13 -89 -13 -181 l0 -168 115 6 115 6 2 175 2 175 -104 0 c-57 0 -109 -6 -117 -13z"/><path d="M4440 2360 l0 -182 113 6 114 6 -1 170 0 170 -113 6 -113 6 0 -182z"/><path d="M1340 2350 l0 -170 120 0 120 0 0 170 0 170 -120 0 -120 0 0 -170z"/><path d="M1860 2350 l0 -170 119 0 118 0 1 170 1 170 -120 0 -119 0 0 -170z"/><path d="M2380 1520 c0 -528 0 -967 0 -975 0 -8 283 -17 630 -20 l630 -6 0 981 0 980 -630 0 -630 0 0 -960z m1027 -11 c-2 -403 -7 -736 -12 -741 -7 -7 -561 -14 -750 -9 l-45 1 0 740 0 740 405 0 405 0 -3 -731z"/><path d="M1340 1840 l0 -180 120 0 120 0 0 180 0 180 -120 0 -120 0 0 -180z"/><path d="M1860 1841 l0 -181 121 0 121 0 -6 175 -6 175 -115 6 -115 6 0 -181z"/><path d="M3920 1835 l0 -177 115 6 115 6 2 175 1 174 -116 -3 -117 -3 0 -178z"/><path d="M4440 1838 l0 -178 116 0 116 0 -4 175 -4 175 -112 3 -112 4 0 -179z"/></g></svg>