<?xml version="1.0" standalone="no"?>
<!DOCTYPE svg PUBLIC "-//W3C//DTD SVG 20010904//EN"
 "http://www.w3.org/TR/2001/REC-SVG-20010904/DTD/svg10.dtd">
<svg version="1.0" xmlns="http://www.w3.org/2000/svg"
 width="113" height="39" viewBox="0 0 498 188">
<g id="htmlacademy-ico" >
<path transform="translate(0.000000,188.000000) scale(0.050000,-0.050000)" fill="#000000"  d="M720 3490 c-324 -37 -592 -67 -595 -68 -3 -1 -5 -528 -5 -1172 l0 -1169 639 -381 640 -382 640 382 641 382 0 1169 0 1168 -45 10 c-71 15 -1220 131 -1275 129 -27 -1 -315 -32 -640 -68z m1555 -191 l225 -24 0 -436 0 -437 -385 227 c-212 125 -461 272 -554 326 l-168 100 -162 -95 c-88 -53 -336 -201 -551 -329 l-390 -234 -5 425 c-3 234 1 432 10 440 8 8 258 41 555 72 l540 57 330 -34 c182 -19 431 -45 555 -58z m-347 -682 c287 -167 533 -313 546 -325 18 -16 -31 -54 -195 -148 l-219 -127 -318 192 c-361 217 -342 209 -342 136 1 -49 25 -69 205 -174 113 -65 240 -141 283 -167 l79 -49 -49 -26 c-53 -29 -27 -40 -363 159 l-155 91 0 -58 c0 -53 19 -70 182 -168 177 -106 180 -109 137 -139 -41 -29 -50 -28 -117 14 -39 25 -101 61 -137 80 l-65 33 0 -57 c0 -45 16 -66 80 -102 100 -56 100 -62 -7 -120 l-86 -47 -545 324 c-300 178 -542 327 -539 331 24 22 1071 649 1085 650 10 0 253 -136 540 -303z m572 -962 l-1 -485 -550 -327 -550 -327 -554 330 -555 329 -5 474 c-5 384 -1 473 21 468 136 -34 1094 -648 1094 -701 l0 -59 -65 39 c-169 104 -680 404 -687 404 -4 0 -8 -25 -8 -55 0 -51 33 -75 380 -283 354 -212 380 -231 380 -285 0 -69 22 -78 -307 121 -123 74 -275 164 -338 200 l-115 65 0 -57 c0 -48 576 -438 744 -503 10 -4 188 95 396 219 l379 227 5 249 6 250 160 96 c88 53 162 96 165 96 3 0 5 -218 5 -485z"/>
<text x="160" y="72" fill="#000000" font-family="Arial " font-size="66" font-weight="600" letter-spacing="4">html</text>
<text x="160" y="132" fill="#000000" font-family="Arial" font-size="66"  font-weight="600" letter-spacing="0.1">academy</text>
</g>

</svg>
